<svg xmlns="http://www.w3.org/2000/svg" viewBox="0 -0.5 512 512" shape-rendering="crispEdges">
    <metadata>Made with Pixels to Svg https://codepen.io/shshaw/pen/XbxvNj</metadata>
    <path stroke="#000309" d="M80 0h80M80 1h80M80 2h80M80 3h80M80 4h80M80 5h80M80 6h80M80 7h80M80 8h80M80 9h80M80 10h80M80 11h80M80 12h80M80 13h80M80 14h80M80 15h80M144 16h32M384 16h96M144 17h32M384 17h96M144 18h32M384 18h96M144 19h32M384 19h96M144 20h32M384 20h96M144 21h32M384 21h96M144 22h32M384 22h96M144 23h32M384 23h96M144 24h32M384 24h96M144 25h32M384 25h96M144 26h32M384 26h96M144 27h32M384 27h96M144 28h32M384 28h96M144 29h32M384 29h96M144 30h32M384 30h96M144 31h32M384 31h96M144 32h80M304 32h32M368 32h64M480 32h16M144 33h80M304 33h32M368 33h64M480 33h16M144 34h80M304 34h32M368 34h64M480 34h16M144 35h80M304 35h32M368 35h64M480 35h16M144 36h80M304 36h32M368 36h64M480 36h16M144 37h80M304 37h32M368 37h64M480 37h16M144 38h80M304 38h32M368 38h64M480 38h16M144 39h80M304 39h32M368 39h64M480 39h16M144 40h80M304 40h32M368 40h64M480 40h16M144 41h80M304 41h32M368 41h64M480 41h16M144 42h80M304 42h32M368 42h64M480 42h16M144 43h80M304 43h32M368 43h64M480 43h16M144 44h80M304 44h32M368 44h64M480 44h16M144 45h80M304 45h32M368 45h64M480 45h16M144 46h80M304 46h32M368 46h64M480 46h16M144 47h80M304 47h32M368 47h64M480 47h16M0 48h16M208 48h32M272 48h128M0 49h16M208 49h32M272 49h128M0 50h16M208 50h32M272 50h128M0 51h16M208 51h32M272 51h128M0 52h16M208 52h32M272 52h128M0 53h16M208 53h32M272 53h128M0 54h16M208 54h32M272 54h128M0 55h16M208 55h32M272 55h128M0 56h16M208 56h32M272 56h128M0 57h16M208 57h32M272 57h128M0 58h16M208 58h32M272 58h128M0 59h16M208 59h32M272 59h128M0 60h16M208 60h32M272 60h128M0 61h16M208 61h32M272 61h128M0 62h16M208 62h32M272 62h128M0 63h16M208 63h32M272 63h128M0 64h16M224 64h16M256 64h16M336 64h16M368 64h32M0 65h16M224 65h16M256 65h16M336 65h16M368 65h32M0 66h16M224 66h16M256 66h16M336 66h16M368 66h32M0 67h16M224 67h16M256 67h16M336 67h16M368 67h32M0 68h16M224 68h16M256 68h16M336 68h16M368 68h32M0 69h16M224 69h16M256 69h16M336 69h16M368 69h32M0 70h16M224 70h16M256 70h16M336 70h16M368 70h32M0 71h16M224 71h16M256 71h16M336 71h16M368 71h32M0 72h16M224 72h16M256 72h16M336 72h16M368 72h32M0 73h16M224 73h16M256 73h16M336 73h16M368 73h32M0 74h16M224 74h16M256 74h16M336 74h16M368 74h32M0 75h16M224 75h16M256 75h16M336 75h16M368 75h32M0 76h16M224 76h16M256 76h16M336 76h16M368 76h32M0 77h16M224 77h16M256 77h16M336 77h16M368 77h32M0 78h16M224 78h16M256 78h16M336 78h16M368 78h32M0 79h16M224 79h16M256 79h16M336 79h16M368 79h32M0 80h16M224 80h16M256 80h16M496 80h16M0 81h16M224 81h16M256 81h16M496 81h16M0 82h16M224 82h16M256 82h16M496 82h16M0 83h16M224 83h16M256 83h16M496 83h16M0 84h16M224 84h16M256 84h16M496 84h16M0 85h16M224 85h16M256 85h16M496 85h16M0 86h16M224 86h16M256 86h16M496 86h16M0 87h16M224 87h16M256 87h16M496 87h16M0 88h16M224 88h16M256 88h16M496 88h16M0 89h16M224 89h16M256 89h16M496 89h16M0 90h16M224 90h16M256 90h16M496 90h16M0 91h16M224 91h16M256 91h16M496 91h16M0 92h16M224 92h16M256 92h16M496 92h16M0 93h16M224 93h16M256 93h16M496 93h16M0 94h16M224 94h16M256 94h16M496 94h16M0 95h16M224 95h16M256 95h16M496 95h16M0 96h32M224 96h64M496 96h16M0 97h32M224 97h64M496 97h16M0 98h32M224 98h64M496 98h16M0 99h32M224 99h64M496 99h16M0 100h32M224 100h64M496 100h16M0 101h32M224 101h64M496 101h16M0 102h32M224 102h64M496 102h16M0 103h32M224 103h64M496 103h16M0 104h32M224 104h64M496 104h16M0 105h32M224 105h64M496 105h16M0 106h32M224 106h64M496 106h16M0 107h32M224 107h64M496 107h16M0 108h32M224 108h64M496 108h16M0 109h32M224 109h64M496 109h16M0 110h32M224 110h64M496 110h16M0 111h32M224 111h64M496 111h16M240 112h48M496 112h16M240 113h48M496 113h16M240 114h48M496 114h16M240 115h48M496 115h16M240 116h48M496 116h16M240 117h48M496 117h16M240 118h48M496 118h16M240 119h48M496 119h16M240 120h48M496 120h16M240 121h48M496 121h16M240 122h48M496 122h16M240 123h48M496 123h16M240 124h48M496 124h16M240 125h48M496 125h16M240 126h48M496 126h16M240 127h48M496 127h16M480 128h32M480 129h32M480 130h32M480 131h32M480 132h32M480 133h32M480 134h32M480 135h32M480 136h32M480 137h32M480 138h32M480 139h32M480 140h32M480 141h32M480 142h32M480 143h32M16 144h48M464 144h48M16 145h48M464 145h48M16 146h48M464 146h48M16 147h48M464 147h48M16 148h48M464 148h48M16 149h48M464 149h48M16 150h48M464 150h48M16 151h48M464 151h48M16 152h48M464 152h48M16 153h48M464 153h48M16 154h48M464 154h48M16 155h48M464 155h48M16 156h48M464 156h48M16 157h48M464 157h48M16 158h48M464 158h48M16 159h48M464 159h48M48 160h32M464 160h32M48 161h32M464 161h32M48 162h32M464 162h32M48 163h32M464 163h32M48 164h32M464 164h32M48 165h32M464 165h32M48 166h32M464 166h32M48 167h32M464 167h32M48 168h32M464 168h32M48 169h32M464 169h32M48 170h32M464 170h32M48 171h32M464 171h32M48 172h32M464 172h32M48 173h32M464 173h32M48 174h32M464 174h32M48 175h32M464 175h32M48 176h48M448 176h48M48 177h48M448 177h48M48 178h48M448 178h48M48 179h48M448 179h48M48 180h48M448 180h48M48 181h48M448 181h48M48 182h48M448 182h48M48 183h48M448 183h48M48 184h48M448 184h48M48 185h48M448 185h48M48 186h48M448 186h48M48 187h48M448 187h48M48 188h48M448 188h48M48 189h48M448 189h48M48 190h48M448 190h48M48 191h48M448 191h48M64 192h32M432 192h48M64 193h32M432 193h48M64 194h32M432 194h48M64 195h32M432 195h48M64 196h32M432 196h48M64 197h32M432 197h48M64 198h32M432 198h48M64 199h32M432 199h48M64 200h32M432 200h48M64 201h32M432 201h48M64 202h32M432 202h48M64 203h32M432 203h48M64 204h32M432 204h48M64 205h32M432 205h48M64 206h32M432 206h48M64 207h32M432 207h48M64 208h32M384 208h80M64 209h32M384 209h80M64 210h32M384 210h80M64 211h32M384 211h80M64 212h32M384 212h80M64 213h32M384 213h80M64 214h32M384 214h80M64 215h32M384 215h80M64 216h32M384 216h80M64 217h32M384 217h80M64 218h32M384 218h80M64 219h32M384 219h80M64 220h32M384 220h80M64 221h32M384 221h80M64 222h32M384 222h80M64 223h32M384 223h80M80 224h32M128 224h32M384 224h48M80 225h32M128 225h32M384 225h48M80 226h32M128 226h32M384 226h48M80 227h32M128 227h32M384 227h48M80 228h32M128 228h32M384 228h48M80 229h32M128 229h32M384 229h48M80 230h32M128 230h32M384 230h48M80 231h32M128 231h32M384 231h48M80 232h32M128 232h32M384 232h48M80 233h32M128 233h32M384 233h48M80 234h32M128 234h32M384 234h48M80 235h32M128 235h32M384 235h48M80 236h32M128 236h32M384 236h48M80 237h32M128 237h32M384 237h48M80 238h32M128 238h32M384 238h48M80 239h32M128 239h32M384 239h48M80 240h32M128 240h48M352 240h16M384 240h16M80 241h32M128 241h48M352 241h16M384 241h16M80 242h32M128 242h48M352 242h16M384 242h16M80 243h32M128 243h48M352 243h16M384 243h16M80 244h32M128 244h48M352 244h16M384 244h16M80 245h32M128 245h48M352 245h16M384 245h16M80 246h32M128 246h48M352 246h16M384 246h16M80 247h32M128 247h48M352 247h16M384 247h16M80 248h32M128 248h48M352 248h16M384 248h16M80 249h32M128 249h48M352 249h16M384 249h16M80 250h32M128 250h48M352 250h16M384 250h16M80 251h32M128 251h48M352 251h16M384 251h16M80 252h32M128 252h48M352 252h16M384 252h16M80 253h32M128 253h48M352 253h16M384 253h16M80 254h32M128 254h48M352 254h16M384 254h16M80 255h32M128 255h48M352 255h16M384 255h16M96 256h48M160 256h32M320 256h48M96 257h48M160 257h32M320 257h48M96 258h48M160 258h32M320 258h48M96 259h48M160 259h32M320 259h48M96 260h48M160 260h32M320 260h48M96 261h48M160 261h32M320 261h48M96 262h48M160 262h32M320 262h48M96 263h48M160 263h32M320 263h48M96 264h48M160 264h32M320 264h48M96 265h48M160 265h32M320 265h48M96 266h48M160 266h32M320 266h48M96 267h48M160 267h32M320 267h48M96 268h48M160 268h32M320 268h48M96 269h48M160 269h32M320 269h48M96 270h48M160 270h32M320 270h48M96 271h48M160 271h32M320 271h48M112 272h32M160 272h32M336 272h16M112 273h32M160 273h32M336 273h16M112 274h32M160 274h32M336 274h16M112 275h32M160 275h32M336 275h16M112 276h32M160 276h32M336 276h16M112 277h32M160 277h32M336 277h16M112 278h32M160 278h32M336 278h16M112 279h32M160 279h32M336 279h16M112 280h32M160 280h32M336 280h16M112 281h32M160 281h32M336 281h16M112 282h32M160 282h32M336 282h16M112 283h32M160 283h32M336 283h16M112 284h32M160 284h32M336 284h16M112 285h32M160 285h32M336 285h16M112 286h32M160 286h32M336 286h16M112 287h32M160 287h32M336 287h16M128 288h16M160 288h16M336 288h16M128 289h16M160 289h16M336 289h16M128 290h16M160 290h16M336 290h16M128 291h16M160 291h16M336 291h16M128 292h16M160 292h16M336 292h16M128 293h16M160 293h16M336 293h16M128 294h16M160 294h16M336 294h16M128 295h16M160 295h16M336 295h16M128 296h16M160 296h16M336 296h16M128 297h16M160 297h16M336 297h16M128 298h16M160 298h16M336 298h16M128 299h16M160 299h16M336 299h16M128 300h16M160 300h16M336 300h16M128 301h16M160 301h16M336 301h16M128 302h16M160 302h16M336 302h16M128 303h16M160 303h16M336 303h16M160 304h16M336 304h16M160 305h16M336 305h16M160 306h16M336 306h16M160 307h16M336 307h16M160 308h16M336 308h16M160 309h16M336 309h16M160 310h16M336 310h16M160 311h16M336 311h16M160 312h16M336 312h16M160 313h16M336 313h16M160 314h16M336 314h16M160 315h16M336 315h16M160 316h16M336 316h16M160 317h16M336 317h16M160 318h16M336 318h16M160 319h16M336 319h16M160 320h32M160 321h32M160 322h32M160 323h32M160 324h32M160 325h32M160 326h32M160 327h32M160 328h32M160 329h32M160 330h32M160 331h32M160 332h32M160 333h32M160 334h32M160 335h32M160 336h32M160 337h32M160 338h32M160 339h32M160 340h32M160 341h32M160 342h32M160 343h32M160 344h32M160 345h32M160 346h32M160 347h32M160 348h32M160 349h32M160 350h32M160 351h32M176 352h16M320 352h16M176 353h16M320 353h16M176 354h16M320 354h16M176 355h16M320 355h16M176 356h16M320 356h16M176 357h16M320 357h16M176 358h16M320 358h16M176 359h16M320 359h16M176 360h16M320 360h16M176 361h16M320 361h16M176 362h16M320 362h16M176 363h16M320 363h16M176 364h16M320 364h16M176 365h16M320 365h16M176 366h16M320 366h16M176 367h16M320 367h16M176 368h16M320 368h16M176 369h16M320 369h16M176 370h16M320 370h16M176 371h16M320 371h16M176 372h16M320 372h16M176 373h16M320 373h16M176 374h16M320 374h16M176 375h16M320 375h16M176 376h16M320 376h16M176 377h16M320 377h16M176 378h16M320 378h16M176 379h16M320 379h16M176 380h16M320 380h16M176 381h16M320 381h16M176 382h16M320 382h16M176 383h16M320 383h16M160 384h32M320 384h16M160 385h32M320 385h16M160 386h32M320 386h16M160 387h32M320 387h16M160 388h32M320 388h16M160 389h32M320 389h16M160 390h32M320 390h16M160 391h32M320 391h16M160 392h32M320 392h16M160 393h32M320 393h16M160 394h32M320 394h16M160 395h32M320 395h16M160 396h32M320 396h16M160 397h32M320 397h16M160 398h32M320 398h16M160 399h32M320 399h16M160 400h16M320 400h16M160 401h16M320 401h16M160 402h16M320 402h16M160 403h16M320 403h16M160 404h16M320 404h16M160 405h16M320 405h16M160 406h16M320 406h16M160 407h16M320 407h16M160 408h16M320 408h16M160 409h16M320 409h16M160 410h16M320 410h16M160 411h16M320 411h16M160 412h16M320 412h16M160 413h16M320 413h16M160 414h16M320 414h16M160 415h16M320 415h16M144 416h32M320 416h32M144 417h32M320 417h32M144 418h32M320 418h32M144 419h32M320 419h32M144 420h32M320 420h32M144 421h32M320 421h32M144 422h32M320 422h32M144 423h32M320 423h32M144 424h32M320 424h32M144 425h32M320 425h32M144 426h32M320 426h32M144 427h32M320 427h32M144 428h32M320 428h32M144 429h32M320 429h32M144 430h32M320 430h32M144 431h32M320 431h32M144 432h32M320 432h32M144 433h32M320 433h32M144 434h32M320 434h32M144 435h32M320 435h32M144 436h32M320 436h32M144 437h32M320 437h32M144 438h32M320 438h32M144 439h32M320 439h32M144 440h32M320 440h32M144 441h32M320 441h32M144 442h32M320 442h32M144 443h32M320 443h32M144 444h32M320 444h32M144 445h32M320 445h32M144 446h32M320 446h32M144 447h32M320 447h32M128 448h48M336 448h32M128 449h48M336 449h32M128 450h48M336 450h32M128 451h48M336 451h32M128 452h48M336 452h32M128 453h48M336 453h32M128 454h48M336 454h32M128 455h48M336 455h32M128 456h48M336 456h32M128 457h48M336 457h32M128 458h48M336 458h32M128 459h48M336 459h32M128 460h48M336 460h32M128 461h48M336 461h32M128 462h48M336 462h32M128 463h48M336 463h32M112 464h48M352 464h32M112 465h48M352 465h32M112 466h48M352 466h32M112 467h48M352 467h32M112 468h48M352 468h32M112 469h48M352 469h32M112 470h48M352 470h32M112 471h48M352 471h32M112 472h48M352 472h32M112 473h48M352 473h32M112 474h48M352 474h32M112 475h48M352 475h32M112 476h48M352 476h32M112 477h48M352 477h32M112 478h48M352 478h32M112 479h48M352 479h32M80 480h64M352 480h32M80 481h64M352 481h32M80 482h64M352 482h32M80 483h64M352 483h32M80 484h64M352 484h32M80 485h64M352 485h32M80 486h64M352 486h32M80 487h64M352 487h32M80 488h64M352 488h32M80 489h64M352 489h32M80 490h64M352 490h32M80 491h64M352 491h32M80 492h64M352 492h32M80 493h64M352 493h32M80 494h64M352 494h32M80 495h64M352 495h32M48 496h80M368 496h32M48 497h80M368 497h32M48 498h80M368 498h32M48 499h80M368 499h32M48 500h80M368 500h32M48 501h80M368 501h32M48 502h80M368 502h32M48 503h80M368 503h32M48 504h80M368 504h32M48 505h80M368 505h32M48 506h80M368 506h32M48 507h80M368 507h32M48 508h80M368 508h32M48 509h80M368 509h32M48 510h80M368 510h32M48 511h80M368 511h32" />
    <path stroke="#fecdd3" d="M48 16h48M48 17h48M48 18h48M48 19h48M48 20h48M48 21h48M48 22h48M48 23h48M48 24h48M48 25h48M48 26h48M48 27h48M48 28h48M48 29h48M48 30h48M48 31h48M32 32h16M432 32h48M32 33h16M432 33h48M32 34h16M432 34h48M32 35h16M432 35h48M32 36h16M432 36h48M32 37h16M432 37h48M32 38h16M432 38h48M32 39h16M432 39h48M32 40h16M432 40h48M32 41h16M432 41h48M32 42h16M432 42h48M32 43h16M432 43h48M32 44h16M432 44h48M32 45h16M432 45h48M32 46h16M432 46h48M32 47h16M432 47h48M16 48h16M80 48h32M400 48h32M464 48h32M16 49h16M80 49h32M400 49h32M464 49h32M16 50h16M80 50h32M400 50h32M464 50h32M16 51h16M80 51h32M400 51h32M464 51h32M16 52h16M80 52h32M400 52h32M464 52h32M16 53h16M80 53h32M400 53h32M464 53h32M16 54h16M80 54h32M400 54h32M464 54h32M16 55h16M80 55h32M400 55h32M464 55h32M16 56h16M80 56h32M400 56h32M464 56h32M16 57h16M80 57h32M400 57h32M464 57h32M16 58h16M80 58h32M400 58h32M464 58h32M16 59h16M80 59h32M400 59h32M464 59h32M16 60h16M80 60h32M400 60h32M464 60h32M16 61h16M80 61h32M400 61h32M464 61h32M16 62h16M80 62h32M400 62h32M464 62h32M16 63h16M80 63h32M400 63h32M464 63h32M16 64h16M80 64h16M112 64h48M448 64h48M16 65h16M80 65h16M112 65h48M448 65h48M16 66h16M80 66h16M112 66h48M448 66h48M16 67h16M80 67h16M112 67h48M448 67h48M16 68h16M80 68h16M112 68h48M448 68h48M16 69h16M80 69h16M112 69h48M448 69h48M16 70h16M80 70h16M112 70h48M448 70h48M16 71h16M80 71h16M112 71h48M448 71h48M16 72h16M80 72h16M112 72h48M448 72h48M16 73h16M80 73h16M112 73h48M448 73h48M16 74h16M80 74h16M112 74h48M448 74h48M16 75h16M80 75h16M112 75h48M448 75h48M16 76h16M80 76h16M112 76h48M448 76h48M16 77h16M80 77h16M112 77h48M448 77h48M16 78h16M80 78h16M112 78h48M448 78h48M16 79h16M80 79h16M112 79h48M448 79h48M16 80h32M80 80h16M128 80h32M368 80h16M416 80h32M464 80h32M16 81h32M80 81h16M128 81h32M368 81h16M416 81h32M464 81h32M16 82h32M80 82h16M128 82h32M368 82h16M416 82h32M464 82h32M16 83h32M80 83h16M128 83h32M368 83h16M416 83h32M464 83h32M16 84h32M80 84h16M128 84h32M368 84h16M416 84h32M464 84h32M16 85h32M80 85h16M128 85h32M368 85h16M416 85h32M464 85h32M16 86h32M80 86h16M128 86h32M368 86h16M416 86h32M464 86h32M16 87h32M80 87h16M128 87h32M368 87h16M416 87h32M464 87h32M16 88h32M80 88h16M128 88h32M368 88h16M416 88h32M464 88h32M16 89h32M80 89h16M128 89h32M368 89h16M416 89h32M464 89h32M16 90h32M80 90h16M128 90h32M368 90h16M416 90h32M464 90h32M16 91h32M80 91h16M128 91h32M368 91h16M416 91h32M464 91h32M16 92h32M80 92h16M128 92h32M368 92h16M416 92h32M464 92h32M16 93h32M80 93h16M128 93h32M368 93h16M416 93h32M464 93h32M16 94h32M80 94h16M128 94h32M368 94h16M416 94h32M464 94h32M16 95h32M80 95h16M128 95h32M368 95h16M416 95h32M464 95h32M32 96h32M80 96h16M352 96h96M464 96h16M32 97h32M80 97h16M352 97h96M464 97h16M32 98h32M80 98h16M352 98h96M464 98h16M32 99h32M80 99h16M352 99h96M464 99h16M32 100h32M80 100h16M352 100h96M464 100h16M32 101h32M80 101h16M352 101h96M464 101h16M32 102h32M80 102h16M352 102h96M464 102h16M32 103h32M80 103h16M352 103h96M464 103h16M32 104h32M80 104h16M352 104h96M464 104h16M32 105h32M80 105h16M352 105h96M464 105h16M32 106h32M80 106h16M352 106h96M464 106h16M32 107h32M80 107h16M352 107h96M464 107h16M32 108h32M80 108h16M352 108h96M464 108h16M32 109h32M80 109h16M352 109h96M464 109h16M32 110h32M80 110h16M352 110h96M464 110h16M32 111h32M80 111h16M352 111h96M464 111h16M32 112h112M336 112h112M464 112h16M32 113h112M336 113h112M464 113h16M32 114h112M336 114h112M464 114h16M32 115h112M336 115h112M464 115h16M32 116h112M336 116h112M464 116h16M32 117h112M336 117h112M464 117h16M32 118h112M336 118h112M464 118h16M32 119h112M336 119h112M464 119h16M32 120h112M336 120h112M464 120h16M32 121h112M336 121h112M464 121h16M32 122h112M336 122h112M464 122h16M32 123h112M336 123h112M464 123h16M32 124h112M336 124h112M464 124h16M32 125h112M336 125h112M464 125h16M32 126h112M336 126h112M464 126h16M32 127h112M336 127h112M464 127h16M64 128h80M352 128h48M432 128h48M64 129h80M352 129h48M432 129h48M64 130h80M352 130h48M432 130h48M64 131h80M352 131h48M432 131h48M64 132h80M352 132h48M432 132h48M64 133h80M352 133h48M432 133h48M64 134h80M352 134h48M432 134h48M64 135h80M352 135h48M432 135h48M64 136h80M352 136h48M432 136h48M64 137h80M352 137h48M432 137h48M64 138h80M352 138h48M432 138h48M64 139h80M352 139h48M432 139h48M64 140h80M352 140h48M432 140h48M64 141h80M352 141h48M432 141h48M64 142h80M352 142h48M432 142h48M64 143h80M352 143h48M432 143h48M64 144h64M352 144h16M384 144h16M416 144h48M64 145h64M352 145h16M384 145h16M416 145h48M64 146h64M352 146h16M384 146h16M416 146h48M64 147h64M352 147h16M384 147h16M416 147h48M64 148h64M352 148h16M384 148h16M416 148h48M64 149h64M352 149h16M384 149h16M416 149h48M64 150h64M352 150h16M384 150h16M416 150h48M64 151h64M352 151h16M384 151h16M416 151h48M64 152h64M352 152h16M384 152h16M416 152h48M64 153h64M352 153h16M384 153h16M416 153h48M64 154h64M352 154h16M384 154h16M416 154h48M64 155h64M352 155h16M384 155h16M416 155h48M64 156h64M352 156h16M384 156h16M416 156h48M64 157h64M352 157h16M384 157h16M416 157h48M64 158h64M352 158h16M384 158h16M416 158h48M64 159h64M352 159h16M384 159h16M416 159h48M80 160h48M416 160h48M80 161h48M416 161h48M80 162h48M416 162h48M80 163h48M416 163h48M80 164h48M416 164h48M80 165h48M416 165h48M80 166h48M416 166h48M80 167h48M416 167h48M80 168h48M416 168h48M80 169h48M416 169h48M80 170h48M416 170h48M80 171h48M416 171h48M80 172h48M416 172h48M80 173h48M416 173h48M80 174h48M416 174h48M80 175h48M416 175h48M96 176h32M416 176h16M96 177h32M416 177h16M96 178h32M416 178h16M96 179h32M416 179h16M96 180h32M416 180h16M96 181h32M416 181h16M96 182h32M416 182h16M96 183h32M416 183h16M96 184h32M416 184h16M96 185h32M416 185h16M96 186h32M416 186h16M96 187h32M416 187h16M96 188h32M416 188h16M96 189h32M416 189h16M96 190h32M416 190h16M96 191h32M416 191h16M400 192h32M400 193h32M400 194h32M400 195h32M400 196h32M400 197h32M400 198h32M400 199h32M400 200h32M400 201h32M400 202h32M400 203h32M400 204h32M400 205h32M400 206h32M400 207h32" />
    <path stroke="#22c55e" d="M96 16h16M96 17h16M96 18h16M96 19h16M96 20h16M96 21h16M96 22h16M96 23h16M96 24h16M96 25h16M96 26h16M96 27h16M96 28h16M96 29h16M96 30h16M96 31h16M96 32h32M96 33h32M96 34h32M96 35h32M96 36h32M96 37h32M96 38h32M96 39h32M96 40h32M96 41h32M96 42h32M96 43h32M96 44h32M96 45h32M96 46h32M96 47h32M112 48h96M112 49h96M112 50h96M112 51h96M112 52h96M112 53h96M112 54h96M112 55h96M112 56h96M112 57h96M112 58h96M112 59h96M112 60h96M112 61h96M112 62h96M112 63h96M176 64h48M304 64h32M176 65h48M304 65h32M176 66h48M304 66h32M176 67h48M304 67h32M176 68h48M304 68h32M176 69h48M304 69h32M176 70h48M304 70h32M176 71h48M304 71h32M176 72h48M304 72h32M176 73h48M304 73h32M176 74h48M304 74h32M176 75h48M304 75h32M176 76h48M304 76h32M176 77h48M304 77h32M176 78h48M304 78h32M176 79h48M304 79h32M176 80h48M288 80h32M176 81h48M288 81h32M176 82h48M288 82h32M176 83h48M288 83h32M176 84h48M288 84h32M176 85h48M288 85h32M176 86h48M288 86h32M176 87h48M288 87h32M176 88h48M288 88h32M176 89h48M288 89h32M176 90h48M288 90h32M176 91h48M288 91h32M176 92h48M288 92h32M176 93h48M288 93h32M176 94h48M288 94h32M176 95h48M288 95h32M192 96h32M288 96h16M192 97h32M288 97h16M192 98h32M288 98h16M192 99h32M288 99h16M192 100h32M288 100h16M192 101h32M288 101h16M192 102h32M288 102h16M192 103h32M288 103h16M192 104h32M288 104h16M192 105h32M288 105h16M192 106h32M288 106h16M192 107h32M288 107h16M192 108h32M288 108h16M192 109h32M288 109h16M192 110h32M288 110h16M192 111h32M288 111h16M208 112h32M208 113h32M208 114h32M208 115h32M208 116h32M208 117h32M208 118h32M208 119h32M208 120h32M208 121h32M208 122h32M208 123h32M208 124h32M208 125h32M208 126h32M208 127h32M208 128h48M208 129h48M208 130h48M208 131h48M208 132h48M208 133h48M208 134h48M208 135h48M208 136h48M208 137h48M208 138h48M208 139h48M208 140h48M208 141h48M208 142h48M208 143h48M192 144h64M192 145h64M192 146h64M192 147h64M192 148h64M192 149h64M192 150h64M192 151h64M192 152h64M192 153h64M192 154h64M192 155h64M192 156h64M192 157h64M192 158h64M192 159h64M176 160h96M176 161h96M176 162h96M176 163h96M176 164h96M176 165h96M176 166h96M176 167h96M176 168h96M176 169h96M176 170h96M176 171h96M176 172h96M176 173h96M176 174h96M176 175h96M160 176h112M160 177h112M160 178h112M160 179h112M160 180h112M160 181h112M160 182h112M160 183h112M160 184h112M160 185h112M160 186h112M160 187h112M160 188h112M160 189h112M160 190h112M160 191h112M144 192h176M144 193h176M144 194h176M144 195h176M144 196h176M144 197h176M144 198h176M144 199h176M144 200h176M144 201h176M144 202h176M144 203h176M144 204h176M144 205h176M144 206h176M144 207h176M176 208h176M176 209h176M176 210h176M176 211h176M176 212h176M176 213h176M176 214h176M176 215h176M176 216h176M176 217h176M176 218h176M176 219h176M176 220h176M176 221h176M176 222h176M176 223h176M176 224h160M176 225h160M176 226h160M176 227h160M176 228h160M176 229h160M176 230h160M176 231h160M176 232h160M176 233h160M176 234h160M176 235h160M176 236h160M176 237h160M176 238h160M176 239h160M176 240h160M176 241h160M176 242h160M176 243h160M176 244h160M176 245h160M176 246h160M176 247h160M176 248h160M176 249h160M176 250h160M176 251h160M176 252h160M176 253h160M176 254h160M176 255h160M192 256h128M192 257h128M192 258h128M192 259h128M192 260h128M192 261h128M192 262h128M192 263h128M192 264h128M192 265h128M192 266h128M192 267h128M192 268h128M192 269h128M192 270h128M192 271h128M192 272h96M192 273h96M192 274h96M192 275h96M192 276h96M192 277h96M192 278h96M192 279h96M192 280h96M192 281h96M192 282h96M192 283h96M192 284h96M192 285h96M192 286h96M192 287h96M192 288h80M192 289h80M192 290h80M192 291h80M192 292h80M192 293h80M192 294h80M192 295h80M192 296h80M192 297h80M192 298h80M192 299h80M192 300h80M192 301h80M192 302h80M192 303h80M192 304h64M192 305h64M192 306h64M192 307h64M192 308h64M192 309h64M192 310h64M192 311h64M192 312h64M192 313h64M192 314h64M192 315h64M192 316h64M192 317h64M192 318h64M192 319h64M208 320h32M208 321h32M208 322h32M208 323h32M208 324h32M208 325h32M208 326h32M208 327h32M208 328h32M208 329h32M208 330h32M208 331h32M208 332h32M208 333h32M208 334h32M208 335h32M224 336h16M224 337h16M224 338h16M224 339h16M224 340h16M224 341h16M224 342h16M224 343h16M224 344h16M224 345h16M224 346h16M224 347h16M224 348h16M224 349h16M224 350h16M224 351h16M224 352h16M224 353h16M224 354h16M224 355h16M224 356h16M224 357h16M224 358h16M224 359h16M224 360h16M224 361h16M224 362h16M224 363h16M224 364h16M224 365h16M224 366h16M224 367h16M224 368h16M224 369h16M224 370h16M224 371h16M224 372h16M224 373h16M224 374h16M224 375h16M224 376h16M224 377h16M224 378h16M224 379h16M224 380h16M224 381h16M224 382h16M224 383h16" />
    <path stroke="#0e7490" d="M112 16h32M112 17h32M112 18h32M112 19h32M112 20h32M112 21h32M112 22h32M112 23h32M112 24h32M112 25h32M112 26h32M112 27h32M112 28h32M112 29h32M112 30h32M112 31h32M128 32h16M128 33h16M128 34h16M128 35h16M128 36h16M128 37h16M128 38h16M128 39h16M128 40h16M128 41h16M128 42h16M128 43h16M128 44h16M128 45h16M128 46h16M128 47h16M272 64h32M272 65h32M272 66h32M272 67h32M272 68h32M272 69h32M272 70h32M272 71h32M272 72h32M272 73h32M272 74h32M272 75h32M272 76h32M272 77h32M272 78h32M272 79h32M272 80h16M272 81h16M272 82h16M272 83h16M272 84h16M272 85h16M272 86h16M272 87h16M272 88h16M272 89h16M272 90h16M272 91h16M272 92h16M272 93h16M272 94h16M272 95h16M288 272h48M288 273h48M288 274h48M288 275h48M288 276h48M288 277h48M288 278h48M288 279h48M288 280h48M288 281h48M288 282h48M288 283h48M288 284h48M288 285h48M288 286h48M288 287h48M176 288h16M272 288h64M176 289h16M272 289h64M176 290h16M272 290h64M176 291h16M272 291h64M176 292h16M272 292h64M176 293h16M272 293h64M176 294h16M272 294h64M176 295h16M272 295h64M176 296h16M272 296h64M176 297h16M272 297h64M176 298h16M272 298h64M176 299h16M272 299h64M176 300h16M272 300h64M176 301h16M272 301h64M176 302h16M272 302h64M176 303h16M272 303h64M176 304h16M256 304h64M176 305h16M256 305h64M176 306h16M256 306h64M176 307h16M256 307h64M176 308h16M256 308h64M176 309h16M256 309h64M176 310h16M256 310h64M176 311h16M256 311h64M176 312h16M256 312h64M176 313h16M256 313h64M176 314h16M256 314h64M176 315h16M256 315h64M176 316h16M256 316h64M176 317h16M256 317h64M176 318h16M256 318h64M176 319h16M256 319h64M192 320h16M240 320h80M192 321h16M240 321h80M192 322h16M240 322h80M192 323h16M240 323h80M192 324h16M240 324h80M192 325h16M240 325h80M192 326h16M240 326h80M192 327h16M240 327h80M192 328h16M240 328h80M192 329h16M240 329h80M192 330h16M240 330h80M192 331h16M240 331h80M192 332h16M240 332h80M192 333h16M240 333h80M192 334h16M240 334h80M192 335h16M240 335h80M192 336h32M240 336h80M192 337h32M240 337h80M192 338h32M240 338h80M192 339h32M240 339h80M192 340h32M240 340h80M192 341h32M240 341h80M192 342h32M240 342h80M192 343h32M240 343h80M192 344h32M240 344h80M192 345h32M240 345h80M192 346h32M240 346h80M192 347h32M240 347h80M192 348h32M240 348h80M192 349h32M240 349h80M192 350h32M240 350h80M192 351h32M240 351h80M192 352h32M240 352h80M192 353h32M240 353h80M192 354h32M240 354h80M192 355h32M240 355h80M192 356h32M240 356h80M192 357h32M240 357h80M192 358h32M240 358h80M192 359h32M240 359h80M192 360h32M240 360h80M192 361h32M240 361h80M192 362h32M240 362h80M192 363h32M240 363h80M192 364h32M240 364h80M192 365h32M240 365h80M192 366h32M240 366h80M192 367h32M240 367h80M192 368h32M240 368h80M192 369h32M240 369h80M192 370h32M240 370h80M192 371h32M240 371h80M192 372h32M240 372h80M192 373h32M240 373h80M192 374h32M240 374h80M192 375h32M240 375h80M192 376h32M240 376h80M192 377h32M240 377h80M192 378h32M240 378h80M192 379h32M240 379h80M192 380h32M240 380h80M192 381h32M240 381h80M192 382h32M240 382h80M192 383h32M240 383h80M192 384h112M192 385h112M192 386h112M192 387h112M192 388h112M192 389h112M192 390h112M192 391h112M192 392h112M192 393h112M192 394h112M192 395h112M192 396h112M192 397h112M192 398h112M192 399h112M176 400h112M176 401h112M176 402h112M176 403h112M176 404h112M176 405h112M176 406h112M176 407h112M176 408h112M176 409h112M176 410h112M176 411h112M176 412h112M176 413h112M176 414h112M176 415h112M192 416h80M192 417h80M192 418h80M192 419h80M192 420h80M192 421h80M192 422h80M192 423h80M192 424h80M192 425h80M192 426h80M192 427h80M192 428h80M192 429h80M192 430h80M192 431h80M208 432h48M208 433h48M208 434h48M208 435h48M208 436h48M208 437h48M208 438h48M208 439h48M208 440h48M208 441h48M208 442h48M208 443h48M208 444h48M208 445h48M208 446h48M208 447h48M224 448h16M224 449h16M224 450h16M224 451h16M224 452h16M224 453h16M224 454h16M224 455h16M224 456h16M224 457h16M224 458h16M224 459h16M224 460h16M224 461h16M224 462h16M224 463h16M224 464h16M224 465h16M224 466h16M224 467h16M224 468h16M224 469h16M224 470h16M224 471h16M224 472h16M224 473h16M224 474h16M224 475h16M224 476h16M224 477h16M224 478h16M224 479h16" />
    <path stroke="#bef264" d="M48 32h48M48 33h48M48 34h48M48 35h48M48 36h48M48 37h48M48 38h48M48 39h48M48 40h48M48 41h48M48 42h48M48 43h48M48 44h48M48 45h48M48 46h48M48 47h48M32 48h48M432 48h32M32 49h48M432 49h32M32 50h48M432 50h32M32 51h48M432 51h32M32 52h48M432 52h32M32 53h48M432 53h32M32 54h48M432 54h32M32 55h48M432 55h32M32 56h48M432 56h32M32 57h48M432 57h32M32 58h48M432 58h32M32 59h48M432 59h32M32 60h48M432 60h32M32 61h48M432 61h32M32 62h48M432 62h32M32 63h48M432 63h32M32 64h48M96 64h16M160 64h16M352 64h16M400 64h48M32 65h48M96 65h16M160 65h16M352 65h16M400 65h48M32 66h48M96 66h16M160 66h16M352 66h16M400 66h48M32 67h48M96 67h16M160 67h16M352 67h16M400 67h48M32 68h48M96 68h16M160 68h16M352 68h16M400 68h48M32 69h48M96 69h16M160 69h16M352 69h16M400 69h48M32 70h48M96 70h16M160 70h16M352 70h16M400 70h48M32 71h48M96 71h16M160 71h16M352 71h16M400 71h48M32 72h48M96 72h16M160 72h16M352 72h16M400 72h48M32 73h48M96 73h16M160 73h16M352 73h16M400 73h48M32 74h48M96 74h16M160 74h16M352 74h16M400 74h48M32 75h48M96 75h16M160 75h16M352 75h16M400 75h48M32 76h48M96 76h16M160 76h16M352 76h16M400 76h48M32 77h48M96 77h16M160 77h16M352 77h16M400 77h48M32 78h48M96 78h16M160 78h16M352 78h16M400 78h48M32 79h48M96 79h16M160 79h16M352 79h16M400 79h48M48 80h32M96 80h32M160 80h16M320 80h48M384 80h32M448 80h16M48 81h32M96 81h32M160 81h16M320 81h48M384 81h32M448 81h16M48 82h32M96 82h32M160 82h16M320 82h48M384 82h32M448 82h16M48 83h32M96 83h32M160 83h16M320 83h48M384 83h32M448 83h16M48 84h32M96 84h32M160 84h16M320 84h48M384 84h32M448 84h16M48 85h32M96 85h32M160 85h16M320 85h48M384 85h32M448 85h16M48 86h32M96 86h32M160 86h16M320 86h48M384 86h32M448 86h16M48 87h32M96 87h32M160 87h16M320 87h48M384 87h32M448 87h16M48 88h32M96 88h32M160 88h16M320 88h48M384 88h32M448 88h16M48 89h32M96 89h32M160 89h16M320 89h48M384 89h32M448 89h16M48 90h32M96 90h32M160 90h16M320 90h48M384 90h32M448 90h16M48 91h32M96 91h32M160 91h16M320 91h48M384 91h32M448 91h16M48 92h32M96 92h32M160 92h16M320 92h48M384 92h32M448 92h16M48 93h32M96 93h32M160 93h16M320 93h48M384 93h32M448 93h16M48 94h32M96 94h32M160 94h16M320 94h48M384 94h32M448 94h16M48 95h32M96 95h32M160 95h16M320 95h48M384 95h32M448 95h16M64 96h16M96 96h96M304 96h48M448 96h16M64 97h16M96 97h96M304 97h48M448 97h16M64 98h16M96 98h96M304 98h48M448 98h16M64 99h16M96 99h96M304 99h48M448 99h16M64 100h16M96 100h96M304 100h48M448 100h16M64 101h16M96 101h96M304 101h48M448 101h16M64 102h16M96 102h96M304 102h48M448 102h16M64 103h16M96 103h96M304 103h48M448 103h16M64 104h16M96 104h96M304 104h48M448 104h16M64 105h16M96 105h96M304 105h48M448 105h16M64 106h16M96 106h96M304 106h48M448 106h16M64 107h16M96 107h96M304 107h48M448 107h16M64 108h16M96 108h96M304 108h48M448 108h16M64 109h16M96 109h96M304 109h48M448 109h16M64 110h16M96 110h96M304 110h48M448 110h16M64 111h16M96 111h96M304 111h48M448 111h16M144 112h64M288 112h48M448 112h16M144 113h64M288 113h48M448 113h16M144 114h64M288 114h48M448 114h16M144 115h64M288 115h48M448 115h16M144 116h64M288 116h48M448 116h16M144 117h64M288 117h48M448 117h16M144 118h64M288 118h48M448 118h16M144 119h64M288 119h48M448 119h16M144 120h64M288 120h48M448 120h16M144 121h64M288 121h48M448 121h16M144 122h64M288 122h48M448 122h16M144 123h64M288 123h48M448 123h16M144 124h64M288 124h48M448 124h16M144 125h64M288 125h48M448 125h16M144 126h64M288 126h48M448 126h16M144 127h64M288 127h48M448 127h16M144 128h64M256 128h96M400 128h32M144 129h64M256 129h96M400 129h32M144 130h64M256 130h96M400 130h32M144 131h64M256 131h96M400 131h32M144 132h64M256 132h96M400 132h32M144 133h64M256 133h96M400 133h32M144 134h64M256 134h96M400 134h32M144 135h64M256 135h96M400 135h32M144 136h64M256 136h96M400 136h32M144 137h64M256 137h96M400 137h32M144 138h64M256 138h96M400 138h32M144 139h64M256 139h96M400 139h32M144 140h64M256 140h96M400 140h32M144 141h64M256 141h96M400 141h32M144 142h64M256 142h96M400 142h32M144 143h64M256 143h96M400 143h32M128 144h64M256 144h96M368 144h16M400 144h16M128 145h64M256 145h96M368 145h16M400 145h16M128 146h64M256 146h96M368 146h16M400 146h16M128 147h64M256 147h96M368 147h16M400 147h16M128 148h64M256 148h96M368 148h16M400 148h16M128 149h64M256 149h96M368 149h16M400 149h16M128 150h64M256 150h96M368 150h16M400 150h16M128 151h64M256 151h96M368 151h16M400 151h16M128 152h64M256 152h96M368 152h16M400 152h16M128 153h64M256 153h96M368 153h16M400 153h16M128 154h64M256 154h96M368 154h16M400 154h16M128 155h64M256 155h96M368 155h16M400 155h16M128 156h64M256 156h96M368 156h16M400 156h16M128 157h64M256 157h96M368 157h16M400 157h16M128 158h64M256 158h96M368 158h16M400 158h16M128 159h64M256 159h96M368 159h16M400 159h16M128 160h48M272 160h144M128 161h48M272 161h144M128 162h48M272 162h144M128 163h48M272 163h144M128 164h48M272 164h144M128 165h48M272 165h144M128 166h48M272 166h144M128 167h48M272 167h144M128 168h48M272 168h144M128 169h48M272 169h144M128 170h48M272 170h144M128 171h48M272 171h144M128 172h48M272 172h144M128 173h48M272 173h144M128 174h48M272 174h144M128 175h48M272 175h144M128 176h32M272 176h144M128 177h32M272 177h144M128 178h32M272 178h144M128 179h32M272 179h144M128 180h32M272 180h144M128 181h32M272 181h144M128 182h32M272 182h144M128 183h32M272 183h144M128 184h32M272 184h144M128 185h32M272 185h144M128 186h32M272 186h144M128 187h32M272 187h144M128 188h32M272 188h144M128 189h32M272 189h144M128 190h32M272 190h144M128 191h32M272 191h144M112 192h32M320 192h80M112 193h32M320 193h80M112 194h32M320 194h80M112 195h32M320 195h80M112 196h32M320 196h80M112 197h32M320 197h80M112 198h32M320 198h80M112 199h32M320 199h80M112 200h32M320 200h80M112 201h32M320 201h80M112 202h32M320 202h80M112 203h32M320 203h80M112 204h32M320 204h80M112 205h32M320 205h80M112 206h32M320 206h80M112 207h32M320 207h80M112 208h32M352 208h32M112 209h32M352 209h32M112 210h32M352 210h32M112 211h32M352 211h32M112 212h32M352 212h32M112 213h32M352 213h32M112 214h32M352 214h32M112 215h32M352 215h32M112 216h32M352 216h32M112 217h32M352 217h32M112 218h32M352 218h32M112 219h32M352 219h32M112 220h32M352 220h32M112 221h32M352 221h32M112 222h32M352 222h32M112 223h32M352 223h32M368 224h16M368 225h16M368 226h16M368 227h16M368 228h16M368 229h16M368 230h16M368 231h16M368 232h16M368 233h16M368 234h16M368 235h16M368 236h16M368 237h16M368 238h16M368 239h16M368 240h16M368 241h16M368 242h16M368 243h16M368 244h16M368 245h16M368 246h16M368 247h16M368 248h16M368 249h16M368 250h16M368 251h16M368 252h16M368 253h16M368 254h16M368 255h16" />
    <path stroke="#001f54" d="M480 96h16M480 97h16M480 98h16M480 99h16M480 100h16M480 101h16M480 102h16M480 103h16M480 104h16M480 105h16M480 106h16M480 107h16M480 108h16M480 109h16M480 110h16M480 111h16M16 112h16M480 112h16M16 113h16M480 113h16M16 114h16M480 114h16M16 115h16M480 115h16M16 116h16M480 116h16M16 117h16M480 117h16M16 118h16M480 118h16M16 119h16M480 119h16M16 120h16M480 120h16M16 121h16M480 121h16M16 122h16M480 122h16M16 123h16M480 123h16M16 124h16M480 124h16M16 125h16M480 125h16M16 126h16M480 126h16M16 127h16M480 127h16M16 128h48M16 129h48M16 130h48M16 131h48M16 132h48M16 133h48M16 134h48M16 135h48M16 136h48M16 137h48M16 138h48M16 139h48M16 140h48M16 141h48M16 142h48M16 143h48M432 176h16M432 177h16M432 178h16M432 179h16M432 180h16M432 181h16M432 182h16M432 183h16M432 184h16M432 185h16M432 186h16M432 187h16M432 188h16M432 189h16M432 190h16M432 191h16M96 192h16M96 193h16M96 194h16M96 195h16M96 196h16M96 197h16M96 198h16M96 199h16M96 200h16M96 201h16M96 202h16M96 203h16M96 204h16M96 205h16M96 206h16M96 207h16M96 208h16M144 208h32M96 209h16M144 209h32M96 210h16M144 210h32M96 211h16M144 211h32M96 212h16M144 212h32M96 213h16M144 213h32M96 214h16M144 214h32M96 215h16M144 215h32M96 216h16M144 216h32M96 217h16M144 217h32M96 218h16M144 218h32M96 219h16M144 219h32M96 220h16M144 220h32M96 221h16M144 221h32M96 222h16M144 222h32M96 223h16M144 223h32M112 224h16M160 224h16M336 224h32M112 225h16M160 225h16M336 225h32M112 226h16M160 226h16M336 226h32M112 227h16M160 227h16M336 227h32M112 228h16M160 228h16M336 228h32M112 229h16M160 229h16M336 229h32M112 230h16M160 230h16M336 230h32M112 231h16M160 231h16M336 231h32M112 232h16M160 232h16M336 232h32M112 233h16M160 233h16M336 233h32M112 234h16M160 234h16M336 234h32M112 235h16M160 235h16M336 235h32M112 236h16M160 236h16M336 236h32M112 237h16M160 237h16M336 237h32M112 238h16M160 238h16M336 238h32M112 239h16M160 239h16M336 239h32M112 240h16M336 240h16M112 241h16M336 241h16M112 242h16M336 242h16M112 243h16M336 243h16M112 244h16M336 244h16M112 245h16M336 245h16M112 246h16M336 246h16M112 247h16M336 247h16M112 248h16M336 248h16M112 249h16M336 249h16M112 250h16M336 250h16M112 251h16M336 251h16M112 252h16M336 252h16M112 253h16M336 253h16M112 254h16M336 254h16M112 255h16M336 255h16M320 304h16M320 305h16M320 306h16M320 307h16M320 308h16M320 309h16M320 310h16M320 311h16M320 312h16M320 313h16M320 314h16M320 315h16M320 316h16M320 317h16M320 318h16M320 319h16M320 320h16M320 321h16M320 322h16M320 323h16M320 324h16M320 325h16M320 326h16M320 327h16M320 328h16M320 329h16M320 330h16M320 331h16M320 332h16M320 333h16M320 334h16M320 335h16M320 336h16M320 337h16M320 338h16M320 339h16M320 340h16M320 341h16M320 342h16M320 343h16M320 344h16M320 345h16M320 346h16M320 347h16M320 348h16M320 349h16M320 350h16M320 351h16M304 384h16M304 385h16M304 386h16M304 387h16M304 388h16M304 389h16M304 390h16M304 391h16M304 392h16M304 393h16M304 394h16M304 395h16M304 396h16M304 397h16M304 398h16M304 399h16M288 400h32M288 401h32M288 402h32M288 403h32M288 404h32M288 405h32M288 406h32M288 407h32M288 408h32M288 409h32M288 410h32M288 411h32M288 412h32M288 413h32M288 414h32M288 415h32M176 416h16M272 416h48M176 417h16M272 417h48M176 418h16M272 418h48M176 419h16M272 419h48M176 420h16M272 420h48M176 421h16M272 421h48M176 422h16M272 422h48M176 423h16M272 423h48M176 424h16M272 424h48M176 425h16M272 425h48M176 426h16M272 426h48M176 427h16M272 427h48M176 428h16M272 428h48M176 429h16M272 429h48M176 430h16M272 430h48M176 431h16M272 431h48M176 432h32M256 432h64M176 433h32M256 433h64M176 434h32M256 434h64M176 435h32M256 435h64M176 436h32M256 436h64M176 437h32M256 437h64M176 438h32M256 438h64M176 439h32M256 439h64M176 440h32M256 440h64M176 441h32M256 441h64M176 442h32M256 442h64M176 443h32M256 443h64M176 444h32M256 444h64M176 445h32M256 445h64M176 446h32M256 446h64M176 447h32M256 447h64M176 448h48M240 448h96M176 449h48M240 449h96M176 450h48M240 450h96M176 451h48M240 451h96M176 452h48M240 452h96M176 453h48M240 453h96M176 454h48M240 454h96M176 455h48M240 455h96M176 456h48M240 456h96M176 457h48M240 457h96M176 458h48M240 458h96M176 459h48M240 459h96M176 460h48M240 460h96M176 461h48M240 461h96M176 462h48M240 462h96M176 463h48M240 463h96M160 464h64M240 464h112M160 465h64M240 465h112M160 466h64M240 466h112M160 467h64M240 467h112M160 468h64M240 468h112M160 469h64M240 469h112M160 470h64M240 470h112M160 471h64M240 471h112M160 472h64M240 472h112M160 473h64M240 473h112M160 474h64M240 474h112M160 475h64M240 475h112M160 476h64M240 476h112M160 477h64M240 477h112M160 478h64M240 478h112M160 479h64M240 479h112M144 480h208M144 481h208M144 482h208M144 483h208M144 484h208M144 485h208M144 486h208M144 487h208M144 488h208M144 489h208M144 490h208M144 491h208M144 492h208M144 493h208M144 494h208M144 495h208M128 496h240M128 497h240M128 498h240M128 499h240M128 500h240M128 501h240M128 502h240M128 503h240M128 504h240M128 505h240M128 506h240M128 507h240M128 508h240M128 509h240M128 510h240M128 511h240" />
    </svg>