<svg xmlns="http://www.w3.org/2000/svg" width="1024" height="1024" viewBox="0 0 1024 1024" version="1.1"><path d="M 96 48 L 96 64 80 64 L 64 64 64 80 L 64 96 48 96 L 32 96 32 144 L 32 192 48 192 L 64 192 64 224 L 64 256 96 256 L 128 256 128 288 L 128 320 144 320 L 160 320 160 336 L 160 352 176 352 L 192 352 192 368 L 192 384 224 384 L 256 384 256 336 L 256 288 272 288 L 288 288 288 256 L 288 224 240 224 L 192 224 192 176 L 192 128 208 128 L 224 128 224 144 L 224 160 240 160 L 256 160 256 176 L 256 192 288 192 L 320 192 320 160 L 320 128 272 128 L 224 128 224 112 L 224 96 192 96 L 160 96 160 160 L 160 224 144 224 L 128 224 128 208 L 128 192 112 192 L 96 192 96 176 L 96 160 80 160 L 64 160 64 128 L 64 96 80 96 L 96 96 96 80 L 96 64 144 64 L 192 64 192 48 L 192 32 144 32 L 96 32 96 48 M 864 80 L 864 96 832 96 L 800 96 800 112 L 800 128 832 128 L 864 128 864 112 L 864 96 896 96 L 928 96 928 112 L 928 128 912 128 L 896 128 896 144 L 896 160 864 160 L 832 160 832 176 L 832 192 800 192 L 768 192 768 176 L 768 160 752 160 L 736 160 736 176 L 736 192 720 192 L 704 192 704 208 L 704 224 688 224 L 672 224 672 240 L 672 256 688 256 L 704 256 704 288 L 704 320 720 320 L 736 320 736 304 L 736 288 752 288 L 768 288 768 304 L 768 320 784 320 L 800 320 800 288 L 800 256 832 256 L 864 256 864 272 L 864 288 848 288 L 832 288 832 336 L 832 384 816 384 L 800 384 800 400 L 800 416 832 416 L 864 416 864 384 L 864 352 896 352 L 928 352 928 320 L 928 288 944 288 L 960 288 960 240 L 960 192 976 192 L 992 192 992 144 L 992 96 976 96 L 960 96 960 80 L 960 64 912 64 L 864 64 864 80 M 896 208 L 896 256 912 256 L 928 256 928 208 L 928 160 912 160 L 896 160 896 208" stroke="none" fill="#fecdd3" fill-rule="evenodd"/><path d="M 96 80 L 96 96 80 96 L 64 96 64 128 L 64 160 80 160 L 96 160 96 176 L 96 192 112 192 L 128 192 128 208 L 128 224 144 224 L 160 224 160 160 L 160 96 176 96 L 192 96 192 80 L 192 64 144 64 L 96 64 96 80 M 864 112 L 864 128 832 128 L 800 128 800 144 L 800 160 784 160 L 768 160 768 176 L 768 192 800 192 L 832 192 832 176 L 832 160 864 160 L 896 160 896 208 L 896 256 912 256 L 928 256 928 208 L 928 160 912 160 L 896 160 896 144 L 896 128 912 128 L 928 128 928 112 L 928 96 896 96 L 864 96 864 112 M 192 176 L 192 224 240 224 L 288 224 288 256 L 288 288 272 288 L 256 288 256 336 L 256 384 240 384 L 224 384 224 416 L 224 448 256 448 L 288 448 288 416 L 288 384 304 384 L 320 384 320 368 L 320 352 336 352 L 352 352 352 336 L 352 320 368 320 L 384 320 384 304 L 384 288 400 288 L 416 288 416 256 L 416 224 400 224 L 384 224 384 208 L 384 192 368 192 L 352 192 352 160 L 352 128 336 128 L 320 128 320 160 L 320 192 288 192 L 256 192 256 176 L 256 160 240 160 L 224 160 224 144 L 224 128 208 128 L 192 128 192 176 M 704 144 L 704 160 672 160 L 640 160 640 176 L 640 192 624 192 L 608 192 608 208 L 608 224 592 224 L 576 224 576 240 L 576 256 544 256 L 512 256 512 288 L 512 320 528 320 L 544 320 544 352 L 544 384 592 384 L 640 384 640 400 L 640 416 672 416 L 704 416 704 432 L 704 448 720 448 L 736 448 736 480 L 736 512 752 512 L 768 512 768 464 L 768 416 784 416 L 800 416 800 400 L 800 384 816 384 L 832 384 832 336 L 832 288 848 288 L 864 288 864 272 L 864 256 832 256 L 800 256 800 288 L 800 320 784 320 L 768 320 768 304 L 768 288 752 288 L 736 288 736 304 L 736 320 720 320 L 704 320 704 288 L 704 256 688 256 L 672 256 672 240 L 672 224 688 224 L 704 224 704 208 L 704 192 720 192 L 736 192 736 160 L 736 128 720 128 L 704 128 704 144" stroke="none" fill="#bef264" fill-rule="evenodd"/><path d="M 192 64 L 192 96 208 96 L 224 96 224 112 L 224 128 288 128 L 352 128 352 160 L 352 192 368 192 L 384 192 384 208 L 384 224 400 224 L 416 224 416 256 L 416 288 400 288 L 384 288 384 304 L 384 320 368 320 L 352 320 352 336 L 352 352 336 352 L 320 352 320 368 L 320 384 304 384 L 288 384 288 400 L 288 416 320 416 L 352 416 352 464 L 352 512 368 512 L 384 512 384 576 L 384 640 400 640 L 416 640 416 656 L 416 672 432 672 L 448 672 448 720 L 448 768 464 768 L 480 768 480 704 L 480 640 496 640 L 512 640 512 624 L 512 608 528 608 L 544 608 544 592 L 544 576 560 576 L 576 576 576 560 L 576 544 608 544 L 640 544 640 528 L 640 512 656 512 L 672 512 672 480 L 672 448 688 448 L 704 448 704 432 L 704 416 672 416 L 640 416 640 400 L 640 384 592 384 L 544 384 544 352 L 544 320 528 320 L 512 320 512 288 L 512 256 496 256 L 480 256 480 240 L 480 224 464 224 L 448 224 448 176 L 448 128 432 128 L 416 128 416 112 L 416 96 336 96 L 256 96 256 80 L 256 64 240 64 L 224 64 224 48 L 224 32 208 32 L 192 32 192 64 M 608 144 L 608 160 592 160 L 576 160 576 192 L 576 224 592 224 L 608 224 608 208 L 608 192 624 192 L 640 192 640 176 L 640 160 656 160 L 672 160 672 144 L 672 128 640 128 L 608 128 608 144" stroke="none" fill="#22c55e" fill-rule="evenodd"/><path d="M 224 48 L 224 64 240 64 L 256 64 256 80 L 256 96 272 96 L 288 96 288 64 L 288 32 256 32 L 224 32 224 48 M 544 160 L 544 192 560 192 L 576 192 576 176 L 576 160 592 160 L 608 160 608 144 L 608 128 576 128 L 544 128 544 160 M 576 560 L 576 576 560 576 L 544 576 544 592 L 544 608 528 608 L 512 608 512 624 L 512 640 496 640 L 480 640 480 704 L 480 768 464 768 L 448 768 448 720 L 448 672 432 672 L 416 672 416 656 L 416 640 400 640 L 384 640 384 608 L 384 576 368 576 L 352 576 352 608 L 352 640 368 640 L 384 640 384 720 L 384 800 368 800 L 352 800 352 816 L 352 832 368 832 L 384 832 384 848 L 384 864 400 864 L 416 864 416 880 L 416 896 432 896 L 448 896 448 928 L 448 960 464 960 L 480 960 480 928 L 480 896 496 896 L 512 896 512 880 L 512 864 528 864 L 544 864 544 848 L 544 832 560 832 L 576 832 576 816 L 576 800 592 800 L 608 800 608 784 L 608 768 624 768 L 640 768 640 688 L 640 608 656 608 L 672 608 672 576 L 672 544 624 544 L 576 544 576 560" stroke="none" fill="#0e7490" fill-rule="evenodd"/><path d="M 960 224 L 960 256 976 256 L 992 256 992 224 L 992 192 976 192 L 960 192 960 224 M 32 256 L 32 288 80 288 L 128 288 128 272 L 128 256 96 256 L 64 256 64 240 L 64 224 48 224 L 32 224 32 256 M 864 368 L 864 384 880 384 L 896 384 896 368 L 896 352 880 352 L 864 352 864 368 M 192 416 L 192 448 208 448 L 224 448 224 480 L 224 512 240 512 L 256 512 256 480 L 256 448 240 448 L 224 448 224 416 L 224 384 208 384 L 192 384 192 416 M 288 432 L 288 448 304 448 L 320 448 320 464 L 320 480 336 480 L 352 480 352 448 L 352 416 320 416 L 288 416 288 432 M 672 480 L 672 512 688 512 L 704 512 704 496 L 704 480 720 480 L 736 480 736 464 L 736 448 704 448 L 672 448 672 480 M 640 656 L 640 704 656 704 L 672 704 672 656 L 672 608 656 608 L 640 608 640 656 M 608 784 L 608 800 592 800 L 576 800 576 816 L 576 832 560 832 L 544 832 544 848 L 544 864 528 864 L 512 864 512 880 L 512 896 496 896 L 480 896 480 928 L 480 960 464 960 L 448 960 448 928 L 448 896 432 896 L 416 896 416 880 L 416 864 400 864 L 384 864 384 848 L 384 832 368 832 L 352 832 352 880 L 352 928 336 928 L 320 928 320 944 L 320 960 304 960 L 288 960 288 976 L 288 992 272 992 L 256 992 256 1008 L 256 1024 496 1024 L 736 1024 736 1008 L 736 992 720 992 L 704 992 704 960 L 704 928 688 928 L 672 928 672 912 L 672 896 656 896 L 640 896 640 832 L 640 768 624 768 L 608 768 608 784" stroke="none" fill="#001f54" fill-rule="evenodd"/><path d="M 160 16 L 160 32 224 32 L 288 32 288 64 L 288 96 352 96 L 416 96 416 112 L 416 128 432 128 L 448 128 448 176 L 448 224 464 224 L 480 224 480 240 L 480 256 528 256 L 576 256 576 224 L 576 192 560 192 L 544 192 544 160 L 544 128 608 128 L 672 128 672 144 L 672 160 688 160 L 704 160 704 144 L 704 128 720 128 L 736 128 736 144 L 736 160 768 160 L 800 160 800 128 L 800 96 832 96 L 864 96 864 80 L 864 64 912 64 L 960 64 960 80 L 960 96 976 96 L 992 96 992 80 L 992 64 976 64 L 960 64 960 48 L 960 32 864 32 L 768 32 768 48 L 768 64 752 64 L 736 64 736 80 L 736 96 704 96 L 672 96 672 80 L 672 64 640 64 L 608 64 608 80 L 608 96 576 96 L 544 96 544 112 L 544 128 528 128 L 512 128 512 160 L 512 192 496 192 L 480 192 480 144 L 480 96 464 96 L 448 96 448 80 L 448 64 400 64 L 352 64 352 48 L 352 32 336 32 L 320 32 320 16 L 320 0 240 0 L 160 0 160 16 M 0 160 L 0 224 32 224 L 64 224 64 208 L 64 192 48 192 L 32 192 32 144 L 32 96 16 96 L 0 96 0 160 M 992 208 L 992 256 976 256 L 960 256 960 272 L 960 288 944 288 L 928 288 928 320 L 928 352 912 352 L 896 352 896 368 L 896 384 880 384 L 864 384 864 400 L 864 416 816 416 L 768 416 768 464 L 768 512 784 512 L 800 512 800 496 L 800 480 832 480 L 864 480 864 464 L 864 448 896 448 L 928 448 928 432 L 928 416 944 416 L 960 416 960 400 L 960 384 976 384 L 992 384 992 352 L 992 320 1008 320 L 1024 320 1024 240 L 1024 160 1008 160 L 992 160 992 208 M 32 304 L 32 320 64 320 L 96 320 96 352 L 96 384 112 384 L 128 384 128 416 L 128 448 144 448 L 160 448 160 480 L 160 512 176 512 L 192 512 192 528 L 192 544 208 544 L 224 544 224 560 L 224 576 240 576 L 256 576 256 592 L 256 608 272 608 L 288 608 288 560 L 288 512 304 512 L 320 512 320 608 L 320 704 336 704 L 352 704 352 736 L 352 768 336 768 L 320 768 320 800 L 320 832 304 832 L 288 832 288 864 L 288 896 272 896 L 256 896 256 912 L 256 928 240 928 L 224 928 224 944 L 224 960 192 960 L 160 960 160 976 L 160 992 128 992 L 96 992 96 1008 L 96 1024 176 1024 L 256 1024 256 1008 L 256 992 272 992 L 288 992 288 976 L 288 960 304 960 L 320 960 320 944 L 320 928 336 928 L 352 928 352 864 L 352 800 368 800 L 384 800 384 720 L 384 640 368 640 L 352 640 352 608 L 352 576 368 576 L 384 576 384 544 L 384 512 368 512 L 352 512 352 496 L 352 480 336 480 L 320 480 320 464 L 320 448 288 448 L 256 448 256 480 L 256 512 240 512 L 224 512 224 480 L 224 448 208 448 L 192 448 192 400 L 192 352 176 352 L 160 352 160 336 L 160 320 144 320 L 128 320 128 304 L 128 288 80 288 L 32 288 32 304 M 704 496 L 704 512 672 512 L 640 512 640 528 L 640 544 656 544 L 672 544 672 592 L 672 640 688 640 L 704 640 704 592 L 704 544 720 544 L 736 544 736 512 L 736 480 720 480 L 704 480 704 496 M 640 800 L 640 896 656 896 L 672 896 672 912 L 672 928 688 928 L 704 928 704 960 L 704 992 720 992 L 736 992 736 1008 L 736 1024 768 1024 L 800 1024 800 1008 L 800 992 784 992 L 768 992 768 960 L 768 928 752 928 L 736 928 736 912 L 736 896 720 896 L 704 896 704 864 L 704 832 688 832 L 672 832 672 768 L 672 704 656 704 L 640 704 640 800" stroke="none" fill="#000309" fill-rule="evenodd"/></svg>